<svg xmlns="http://www.w3.org/2000/svg" width="64" height="64" fill="currentColor" viewBox="0 0 24 24"><path d="M7.97 16c-.25 0-.5-.1-.68-.27A1 1 0 0 1 7 15c0-.3.11-.55.29-.73L9.54 12 7.29 9.73A1 1 0 0 1 7 9c0-.3.11-.55.29-.73A.96.96 0 0 1 7.97 8c.26 0 .51.09.69.27l2.25 2.23c.18.18.29.43.29.73v1.54c0 .3-.11.55-.29.73l-2.25 2.23c-.18.18-.43.27-.69.27m8.06 0c-.25 0-.5-.1-.68-.27L13.1 13.5a1 1 0 0 1-.29-.73v-1.54c0-.3.11-.55.29-.73l2.25-2.23c.18-.18.43-.27.69-.27.25 0 .5.09.68.27s.29.43.29.73-.11.55-.29.73L14.46 12l2.25 2.27c.18.18.29.43.29.73s-.11.55-.29.73c-.18.17-.43.27-.68.27"/><path d="M12 2C6.48 2 2 6.48 2 12s4.48 10 10 10 10-4.48 10-10S17.52 2 12 2m0 18c-4.41 0-8-3.59-8-8s3.59-8 8-8 8 3.59 8 8-3.59 8-8 8"/></svg>